%TF.GenerationSoftware,KiCad,Pcbnew,8.0.3*%
%TF.CreationDate,2024-07-11T19:01:52+02:00*%
%TF.ProjectId,Ecke,45636b65-2e6b-4696-9361-645f70636258,rev?*%
%TF.SameCoordinates,Original*%
%TF.FileFunction,Plated,1,2,PTH,Drill*%
%TF.FilePolarity,Positive*%
%FSLAX46Y46*%
G04 Gerber Fmt 4.6, Leading zero omitted, Abs format (unit mm)*
G04 Created by KiCad (PCBNEW 8.0.3) date 2024-07-11 19:01:52*
%MOMM*%
%LPD*%
G01*
G04 APERTURE LIST*
%TA.AperFunction,ViaDrill*%
%ADD10C,0.400000*%
%TD*%
%TA.AperFunction,ComponentDrill*%
%ADD11C,1.000000*%
%TD*%
G04 APERTURE END LIST*
D10*
X103250001Y-109279000D03*
X103250001Y-125279000D03*
X103250001Y-141279000D03*
X104250001Y-109279000D03*
X104250001Y-125279000D03*
X104250001Y-141279000D03*
X105250001Y-109279000D03*
X105250001Y-125279000D03*
X105250001Y-141279000D03*
X106250001Y-109279000D03*
X106250001Y-125279000D03*
X106250001Y-141279000D03*
X197750001Y-109279000D03*
X197750001Y-125279000D03*
X197750001Y-141279000D03*
X198750001Y-109279000D03*
X198750001Y-125279000D03*
X198750001Y-141279000D03*
X199750001Y-109279000D03*
X199750001Y-125279000D03*
X199750001Y-141279000D03*
X200750001Y-109279000D03*
X200750001Y-125279000D03*
X200750001Y-141279000D03*
D11*
%TO.C,J1*%
X80000000Y-108000000D03*
X80000000Y-124000000D03*
X80000000Y-140000000D03*
X82540000Y-108000000D03*
X82540000Y-124000000D03*
X82540000Y-140000000D03*
X85079999Y-108000000D03*
X85079999Y-124000000D03*
X85079999Y-140000000D03*
%TO.C,J2*%
X86000000Y-94000000D03*
X87270000Y-91800295D03*
%TO.C,J1*%
X87620000Y-108000000D03*
X87620000Y-124000000D03*
X87620000Y-140000000D03*
%TO.C,J2*%
X88540000Y-89600591D03*
X89810000Y-87400886D03*
%TO.C,J1*%
X90160000Y-108000000D03*
X90160000Y-124000000D03*
X90160000Y-140000000D03*
%TO.C,J2*%
X91080000Y-85201182D03*
%TO.C,J1*%
X92326568Y-81401180D03*
X92326569Y-76321181D03*
X92326569Y-78861181D03*
X94866569Y-76321181D03*
X94866569Y-78861182D03*
X94866569Y-81401181D03*
%TO.C,J3*%
X96159999Y-85201183D03*
X97429999Y-87400888D03*
X98699999Y-89600592D03*
X99969999Y-91800297D03*
X101239999Y-94000001D03*
X111626569Y-75321180D03*
X112896569Y-77520884D03*
X114166569Y-79720589D03*
X115436569Y-81920293D03*
X116706569Y-84119998D03*
%TO.C,J1*%
X118000000Y-87920000D03*
X118000000Y-90459999D03*
X118000000Y-93000000D03*
X120540000Y-90460000D03*
X120540000Y-93000000D03*
X120540001Y-87920001D03*
%TO.C,J2*%
X121786568Y-84120000D03*
X123056568Y-81920296D03*
X124326568Y-79720591D03*
X125596568Y-77520887D03*
X126866568Y-75321182D03*
X137000000Y-94000000D03*
X138270000Y-91800295D03*
X139540000Y-89600591D03*
X140810000Y-87400886D03*
X142080000Y-85201182D03*
%TO.C,J1*%
X143326568Y-81401180D03*
X143326569Y-76321181D03*
X143326569Y-78861181D03*
X145866569Y-76321181D03*
X145866569Y-78861182D03*
X145866569Y-81401181D03*
%TO.C,J3*%
X147159999Y-85201183D03*
X148429999Y-87400888D03*
X149699999Y-89600592D03*
X150969999Y-91800297D03*
X152239999Y-94000001D03*
%TO.C,J1*%
X168800296Y-90730004D03*
X169054296Y-74220004D03*
X170070296Y-88530300D03*
X170324296Y-72020300D03*
X171000001Y-92000004D03*
X171254001Y-75490004D03*
X171340296Y-86330595D03*
X171594296Y-69820595D03*
X172270000Y-89800300D03*
X172524000Y-73290300D03*
X173540001Y-87600595D03*
X173794001Y-71090595D03*
%TO.C,J3*%
X174274649Y-92424151D03*
X174528649Y-75914151D03*
X175544649Y-90224446D03*
X175798649Y-73714446D03*
%TO.C,J4*%
X186880650Y-90263890D03*
X187134650Y-73753890D03*
X188150650Y-92463595D03*
X188404650Y-75953595D03*
%TO.C,J2*%
X188885297Y-87640038D03*
X189139297Y-71130038D03*
X190155297Y-89839743D03*
X190409297Y-73329743D03*
X191085002Y-86370038D03*
X191339002Y-69860038D03*
X191425297Y-92039447D03*
X191679297Y-75529447D03*
X192355002Y-88569743D03*
X192609002Y-72059743D03*
X193625002Y-90769447D03*
X193879002Y-74259447D03*
X213839998Y-108000000D03*
X213839998Y-124000000D03*
X213839998Y-140000000D03*
X216379998Y-108000000D03*
X216379998Y-124000000D03*
X216379998Y-140000000D03*
X218919997Y-108000000D03*
X218919997Y-124000000D03*
X218919997Y-140000000D03*
X221459998Y-108000000D03*
X221459998Y-124000000D03*
X221459998Y-140000000D03*
X223999998Y-108000000D03*
X223999998Y-124000000D03*
X223999998Y-140000000D03*
M02*
