G04 #@! TF.GenerationSoftware,KiCad,Pcbnew,8.0.3*
G04 #@! TF.CreationDate,2024-07-11T19:01:52+02:00*
G04 #@! TF.ProjectId,Ecke,45636b65-2e6b-4696-9361-645f70636258,rev?*
G04 #@! TF.SameCoordinates,Original*
G04 #@! TF.FileFunction,Profile,NP*
%FSLAX46Y46*%
G04 Gerber Fmt 4.6, Leading zero omitted, Abs format (unit mm)*
G04 Created by KiCad (PCBNEW 8.0.3) date 2024-07-11 19:01:52*
%MOMM*%
%LPD*%
G01*
G04 APERTURE LIST*
G04 #@! TA.AperFunction,Profile*
%ADD10C,0.100000*%
G04 #@! TD*
G04 #@! TA.AperFunction,Profile*
%ADD11C,0.200000*%
G04 #@! TD*
G04 APERTURE END LIST*
D10*
X191674878Y-65853689D02*
X187629405Y-68189344D01*
X175308884Y-68189339D02*
X171263421Y-65853692D01*
X169897390Y-66219719D02*
G75*
G02*
X171263423Y-65853689I866032J-500003D01*
G01*
X185129402Y-68859219D02*
X177808901Y-68859220D01*
X173621447Y-79859219D02*
X189316839Y-79859221D01*
X165453442Y-75916922D02*
G75*
G02*
X165087405Y-74550875I500110J866070D01*
G01*
X197850904Y-74550881D02*
G75*
G02*
X197484879Y-75916904I-865942J-500021D01*
G01*
X197850904Y-74550881D02*
X193040903Y-66219717D01*
X173621447Y-79859219D02*
G75*
G02*
X171121457Y-79189344I85J5000267D01*
G01*
X191816846Y-79189346D02*
X197484879Y-75916905D01*
X169897390Y-66219719D02*
X165087404Y-74550867D01*
X177808901Y-68859220D02*
G75*
G02*
X175308881Y-68189345I-39J4999918D01*
G01*
X187629405Y-68189344D02*
G75*
G02*
X185129403Y-68859233I-2500143J4330542D01*
G01*
X191674878Y-65853689D02*
G75*
G02*
X193040882Y-66219729I499984J-866013D01*
G01*
X165453442Y-75916922D02*
X171121456Y-79189346D01*
X191816846Y-79189346D02*
G75*
G02*
X189316839Y-79859249I-2499984J4329844D01*
G01*
X191420878Y-82363689D02*
X187375405Y-84699344D01*
X175054884Y-84699339D02*
X171009421Y-82363692D01*
X169643390Y-82729719D02*
G75*
G02*
X171009423Y-82363689I866032J-500003D01*
G01*
X184875402Y-85369219D02*
X177554901Y-85369220D01*
X173367447Y-96369219D02*
X189062839Y-96369221D01*
X165199442Y-92426922D02*
G75*
G02*
X164833405Y-91060875I500110J866070D01*
G01*
X197596904Y-91060881D02*
G75*
G02*
X197230879Y-92426904I-865942J-500021D01*
G01*
X197596904Y-91060881D02*
X192786903Y-82729717D01*
X173367447Y-96369219D02*
G75*
G02*
X170867457Y-95699344I85J5000267D01*
G01*
X191562846Y-95699346D02*
X197230879Y-92426905D01*
X169643390Y-82729719D02*
X164833404Y-91060867D01*
X177554901Y-85369220D02*
G75*
G02*
X175054881Y-84699345I-39J4999918D01*
G01*
X187375405Y-84699344D02*
G75*
G02*
X184875403Y-85369233I-2500143J4330542D01*
G01*
X191420878Y-82363689D02*
G75*
G02*
X192786882Y-82729729I499984J-866013D01*
G01*
X165199442Y-92426922D02*
X170867456Y-95699346D01*
X191562846Y-95699346D02*
G75*
G02*
X189062839Y-96369249I-2499984J4329844D01*
G01*
D11*
X147263922Y-72501183D02*
X141976069Y-72501183D01*
X147263922Y-72501183D02*
G75*
G02*
X148996020Y-73501156I-119J-2000316D01*
G01*
X140244029Y-73501177D02*
X128674619Y-93539981D01*
X160565392Y-93540000D02*
G75*
G02*
X158833338Y-96540032I-1732089J-999999D01*
G01*
X130406701Y-96540002D02*
G75*
G02*
X128674629Y-93539987I-198J1999903D01*
G01*
X140244029Y-73501177D02*
G75*
G02*
X141976069Y-72501168I1732074J-1000022D01*
G01*
X160565392Y-93540000D02*
X148995975Y-73501182D01*
X130406701Y-96540002D02*
X158833338Y-96540001D01*
D10*
X225000002Y-100019999D02*
G75*
G02*
X227000002Y-102019996I-1J-2000001D01*
G01*
X79000000Y-112519998D02*
X225000000Y-112519997D01*
X77000001Y-102019999D02*
X77000001Y-110519999D01*
X227000000Y-110519999D02*
X227000000Y-102019999D01*
X227000000Y-110519999D02*
G75*
G02*
X225000000Y-112519999I-1999999J-1D01*
G01*
X79000000Y-112519998D02*
G75*
G02*
X77000001Y-110519999I3J2000002D01*
G01*
X225000002Y-100019999D02*
X79000000Y-100019999D01*
X77000001Y-102019998D02*
G75*
G02*
X79000000Y-100019999I2000002J-3D01*
G01*
X79000000Y-128519998D02*
G75*
G02*
X77000001Y-126519999I3J2000002D01*
G01*
X225000002Y-116019999D02*
G75*
G02*
X227000002Y-118019996I-1J-2000001D01*
G01*
X227000000Y-126519999D02*
X227000000Y-118019999D01*
X79000000Y-128519998D02*
X225000000Y-128519997D01*
X77000001Y-118019999D02*
X77000001Y-126519999D01*
X227000000Y-126519999D02*
G75*
G02*
X225000000Y-128519999I-1999999J-1D01*
G01*
X225000002Y-116019999D02*
X79000000Y-116019999D01*
X77000001Y-118019998D02*
G75*
G02*
X79000000Y-116019999I2000002J-3D01*
G01*
X227000000Y-142519999D02*
X227000000Y-134019999D01*
X79000000Y-144519998D02*
X225000000Y-144519997D01*
X225000002Y-132019999D02*
G75*
G02*
X227000002Y-134019996I-1J-2000001D01*
G01*
X77000001Y-134019999D02*
X77000001Y-142519999D01*
X225000002Y-132019999D02*
X79000000Y-132019999D01*
X227000000Y-142519999D02*
G75*
G02*
X225000000Y-144519999I-1999999J-1D01*
G01*
X77000001Y-134019998D02*
G75*
G02*
X79000000Y-132019999I2000002J-3D01*
G01*
X79000000Y-144519998D02*
G75*
G02*
X77000001Y-142519999I3J2000002D01*
G01*
D11*
X89244029Y-73501177D02*
G75*
G02*
X90976069Y-72501168I1732074J-1000022D01*
G01*
X89244029Y-73501177D02*
X77674619Y-93539981D01*
X96263922Y-72501183D02*
X90976069Y-72501183D01*
X109565392Y-93540000D02*
X97995975Y-73501182D01*
X109565392Y-93540000D02*
G75*
G02*
X107833338Y-96540032I-1732089J-999999D01*
G01*
X96263922Y-72501183D02*
G75*
G02*
X97996020Y-73501156I-119J-2000316D01*
G01*
X79406701Y-96540002D02*
X107833338Y-96540001D01*
X79406701Y-96540002D02*
G75*
G02*
X77674629Y-93539987I-198J1999903D01*
G01*
X116602646Y-96819998D02*
G75*
G02*
X114870547Y-95820025I119J2000316D01*
G01*
X133459867Y-72781179D02*
G75*
G02*
X135191939Y-75781194I198J-1999903D01*
G01*
X103301176Y-75781181D02*
G75*
G02*
X105033230Y-72781149I1732089J999999D01*
G01*
X123622539Y-95820005D02*
X135191948Y-75781200D01*
X103301176Y-75781181D02*
X114870592Y-95819999D01*
X123622539Y-95820005D02*
G75*
G02*
X121890499Y-96820014I-1732074J1000023D01*
G01*
X133459867Y-72781179D02*
X105033230Y-72781180D01*
X116602646Y-96819998D02*
X121890499Y-96819998D01*
M02*
