%TF.GenerationSoftware,KiCad,Pcbnew,8.0.3*%
%TF.CreationDate,2024-08-02T00:59:48+02:00*%
%TF.ProjectId,Controller,436f6e74-726f-46c6-9c65-722e6b696361,rev?*%
%TF.SameCoordinates,Original*%
%TF.FileFunction,Plated,1,2,PTH,Mixed*%
%TF.FilePolarity,Positive*%
%FSLAX46Y46*%
G04 Gerber Fmt 4.6, Leading zero omitted, Abs format (unit mm)*
G04 Created by KiCad (PCBNEW 8.0.3) date 2024-08-02 00:59:48*
%MOMM*%
%LPD*%
G01*
G04 APERTURE LIST*
%TA.AperFunction,ComponentDrill*%
%ADD10C,0.800000*%
%TD*%
%TA.AperFunction,ComponentDrill*%
%ADD11C,1.000000*%
%TD*%
G04 aperture for slot hole*
%TA.AperFunction,ComponentDrill*%
%ADD12C,1.000000*%
%TD*%
%TA.AperFunction,ComponentDrill*%
%ADD13C,1.100000*%
%TD*%
%TA.AperFunction,ComponentDrill*%
%ADD14C,1.200000*%
%TD*%
%TA.AperFunction,ComponentDrill*%
%ADD15C,1.600000*%
%TD*%
G04 APERTURE END LIST*
D10*
%TO.C,R2*%
X142838407Y-117901100D03*
%TO.C,R3*%
X142838408Y-121203100D03*
%TO.C,R1*%
X142838410Y-114599100D03*
%TO.C,C1*%
X151220408Y-108035101D03*
X151220408Y-110535101D03*
%TO.C,R2*%
X152998407Y-117901100D03*
%TO.C,R3*%
X152998408Y-121203100D03*
%TO.C,R1*%
X152998410Y-114599100D03*
%TO.C,U2*%
X156300407Y-109519100D03*
X156300407Y-112059101D03*
X156300407Y-114599100D03*
X156300407Y-117139101D03*
%TO.C,R5*%
X156300408Y-102661101D03*
%TO.C,R4*%
X156300409Y-105963100D03*
%TO.C,U2*%
X163920407Y-109519101D03*
X163920407Y-112059101D03*
X163920407Y-114599101D03*
X163920407Y-117139101D03*
%TO.C,R5*%
X166460408Y-102661101D03*
%TO.C,R4*%
X166460409Y-105963100D03*
%TO.C,C2*%
X167476407Y-109559102D03*
X167476407Y-112059102D03*
%TO.C,U3*%
X190082407Y-98343101D03*
X190082407Y-123743101D03*
%TO.C,U1*%
X190082408Y-107243101D03*
X190082408Y-114863101D03*
X192622407Y-114863101D03*
%TO.C,U3*%
X192622407Y-123743101D03*
X192622408Y-98343101D03*
%TO.C,U1*%
X192622408Y-107243101D03*
%TO.C,U3*%
X195162407Y-98343101D03*
X195162407Y-123743101D03*
%TO.C,U1*%
X195162408Y-107243101D03*
X195162408Y-114863101D03*
%TO.C,U3*%
X197702407Y-98343101D03*
%TO.C,U1*%
X197702407Y-114863101D03*
%TO.C,U3*%
X197702407Y-123743101D03*
%TO.C,U1*%
X197702408Y-107243101D03*
%TO.C,U3*%
X200242407Y-98343101D03*
X200242407Y-123743101D03*
%TO.C,U1*%
X200242408Y-107243101D03*
X200242408Y-114863101D03*
%TO.C,U3*%
X202782407Y-98343101D03*
%TO.C,U1*%
X202782407Y-114863101D03*
%TO.C,U3*%
X202782407Y-123743101D03*
%TO.C,U1*%
X202782408Y-107243101D03*
%TO.C,U3*%
X205322407Y-98343101D03*
X205322407Y-123743101D03*
%TO.C,U1*%
X205322408Y-107243101D03*
X205322408Y-114863101D03*
%TO.C,U3*%
X207862407Y-98343101D03*
X207862407Y-123743101D03*
%TO.C,C3*%
X209082404Y-108543101D03*
X209082404Y-113543101D03*
%TO.C,U3*%
X210402407Y-98343101D03*
X210402407Y-123743101D03*
X212942407Y-98343101D03*
X212942407Y-123743101D03*
X215482407Y-98343101D03*
X215482407Y-123743101D03*
X218022407Y-98343101D03*
X218022407Y-123743101D03*
X220562407Y-98343101D03*
X220562407Y-123743101D03*
X223102407Y-98343101D03*
X223102407Y-123743101D03*
X225642407Y-98343101D03*
X225642407Y-123743101D03*
X228182407Y-98343101D03*
X228182407Y-123743101D03*
X230722407Y-98343101D03*
X230722407Y-123743101D03*
X233259687Y-98346781D03*
X233262407Y-123743101D03*
X235799687Y-98346781D03*
X235802407Y-123743101D03*
D11*
%TO.C,J3*%
X115316000Y-103545705D03*
X116586000Y-101346000D03*
X117515705Y-104815705D03*
X118785705Y-102616000D03*
X119715409Y-106085705D03*
X120985409Y-103886000D03*
D12*
%TO.C,J1*%
X134948406Y-112059103D02*
X132948406Y-112059103D01*
X134948406Y-118059103D02*
X132948406Y-118059103D01*
X138648406Y-114059103D02*
X138648406Y-116059103D01*
D11*
%TO.C,C4*%
X173826408Y-100963099D03*
X173826408Y-105963099D03*
D13*
%TO.C,D1*%
X156300405Y-121203101D03*
X166460405Y-121203101D03*
D14*
%TO.C,L1*%
X172048408Y-116123101D03*
X179048408Y-116123101D03*
D15*
%TO.C,D2*%
X125566408Y-108923099D03*
X125566408Y-124163099D03*
M02*
