G04 #@! TF.GenerationSoftware,KiCad,Pcbnew,8.0.3*
G04 #@! TF.CreationDate,2024-08-02T00:59:49+02:00*
G04 #@! TF.ProjectId,Controller,436f6e74-726f-46c6-9c65-722e6b696361,rev?*
G04 #@! TF.SameCoordinates,Original*
G04 #@! TF.FileFunction,Profile,NP*
%FSLAX46Y46*%
G04 Gerber Fmt 4.6, Leading zero omitted, Abs format (unit mm)*
G04 Created by KiCad (PCBNEW 8.0.3) date 2024-08-02 00:59:49*
%MOMM*%
%LPD*%
G01*
G04 APERTURE LIST*
G04 Aperture macros list*
%AMRoundRect*
0 Rectangle with rounded corners*
0 $1 Rounding radius*
0 $2 $3 $4 $5 $6 $7 $8 $9 X,Y pos of 4 corners*
0 Add a 4 corners polygon primitive as box body*
4,1,4,$2,$3,$4,$5,$6,$7,$8,$9,$2,$3,0*
0 Add four circle primitives for the rounded corners*
1,1,$1+$1,$2,$3*
1,1,$1+$1,$4,$5*
1,1,$1+$1,$6,$7*
1,1,$1+$1,$8,$9*
0 Add four rect primitives between the rounded corners*
20,1,$1+$1,$2,$3,$4,$5,0*
20,1,$1+$1,$4,$5,$6,$7,0*
20,1,$1+$1,$6,$7,$8,$9,0*
20,1,$1+$1,$8,$9,$2,$3,0*%
%AMHorizOval*
0 Thick line with rounded ends*
0 $1 width*
0 $2 $3 position (X,Y) of the first rounded end (center of the circle)*
0 $4 $5 position (X,Y) of the second rounded end (center of the circle)*
0 Add line between two ends*
20,1,$1,$2,$3,$4,$5,0*
0 Add two circle primitives to create the rounded ends*
1,1,$1,$2,$3*
1,1,$1,$4,$5*%
%AMRotRect*
0 Rectangle, with rotation*
0 The origin of the aperture is its center*
0 $1 length*
0 $2 width*
0 $3 Rotation angle, in degrees counterclockwise*
0 Add horizontal line*
21,1,$1,$2,0,0,$3*%
G04 Aperture macros list end*
G04 #@! TA.AperFunction,Profile*
%ADD10C,0.200000*%
G04 #@! TD*
G04 #@! TA.AperFunction,ComponentPad*
%ADD11R,3.200000X3.200000*%
G04 #@! TD*
G04 #@! TA.AperFunction,ComponentPad*
%ADD12O,3.200000X3.200000*%
G04 #@! TD*
G04 #@! TA.AperFunction,ComponentPad*
%ADD13R,1.600000X2.400000*%
G04 #@! TD*
G04 #@! TA.AperFunction,ComponentPad*
%ADD14O,1.600000X2.400000*%
G04 #@! TD*
G04 #@! TA.AperFunction,ComponentPad*
%ADD15C,1.600000*%
G04 #@! TD*
G04 #@! TA.AperFunction,ComponentPad*
%ADD16O,1.600000X1.600000*%
G04 #@! TD*
G04 #@! TA.AperFunction,ComponentPad*
%ADD17R,2.200000X2.200000*%
G04 #@! TD*
G04 #@! TA.AperFunction,ComponentPad*
%ADD18O,2.200000X2.200000*%
G04 #@! TD*
G04 #@! TA.AperFunction,ComponentPad*
%ADD19R,2.000000X2.000000*%
G04 #@! TD*
G04 #@! TA.AperFunction,ComponentPad*
%ADD20C,2.000000*%
G04 #@! TD*
G04 #@! TA.AperFunction,ComponentPad*
%ADD21R,1.600000X1.600000*%
G04 #@! TD*
G04 #@! TA.AperFunction,ComponentPad*
%ADD22R,1.200000X2.000000*%
G04 #@! TD*
G04 #@! TA.AperFunction,ComponentPad*
%ADD23O,1.200000X2.000000*%
G04 #@! TD*
G04 #@! TA.AperFunction,ComponentPad*
%ADD24R,3.500000X3.500000*%
G04 #@! TD*
G04 #@! TA.AperFunction,ComponentPad*
%ADD25RoundRect,0.750000X1.000000X-0.750000X1.000000X0.750000X-1.000000X0.750000X-1.000000X-0.750000X0*%
G04 #@! TD*
G04 #@! TA.AperFunction,ComponentPad*
%ADD26RoundRect,0.875000X0.875000X-0.875000X0.875000X0.875000X-0.875000X0.875000X-0.875000X-0.875000X0*%
G04 #@! TD*
G04 #@! TA.AperFunction,ComponentPad*
%ADD27RotRect,1.700000X1.700000X60.000000*%
G04 #@! TD*
G04 #@! TA.AperFunction,ComponentPad*
%ADD28HorizOval,1.700000X0.000000X0.000000X0.000000X0.000000X0*%
G04 #@! TD*
G04 #@! TA.AperFunction,ComponentPad*
%ADD29C,2.400000*%
G04 #@! TD*
%ADD30C,0.350000*%
%ADD31O,3.000000X1.000000*%
%ADD32O,1.000000X3.000000*%
G04 APERTURE END LIST*
D10*
X124680469Y-126559101D02*
G75*
G02*
X122085394Y-125064261I131J3000201D01*
G01*
X241448401Y-95559103D02*
X110234671Y-95559102D01*
X107648600Y-100059062D02*
X122085369Y-125064276D01*
X107648600Y-100059062D02*
G75*
G02*
X110234671Y-95559097I2598060J1500002D01*
G01*
X241448401Y-95559103D02*
G75*
G02*
X244448397Y-98559103I-1J-2999997D01*
G01*
X244448403Y-123559104D02*
X244448403Y-98559103D01*
X244448403Y-123559104D02*
G75*
G02*
X241448407Y-126559103I-3000003J4D01*
G01*
X124680469Y-126559101D02*
X241448407Y-126559102D01*
D11*
X125566408Y-124163099D03*
D12*
X125566408Y-108923099D03*
D13*
X205322408Y-107243101D03*
D14*
X202782408Y-107243101D03*
X200242408Y-107243101D03*
X197702408Y-107243101D03*
X195162408Y-107243101D03*
X192622408Y-107243101D03*
X190082408Y-107243101D03*
X190082408Y-114863101D03*
X192622407Y-114863101D03*
X195162408Y-114863101D03*
X197702407Y-114863101D03*
X200242408Y-114863101D03*
X202782407Y-114863101D03*
X205322408Y-114863101D03*
D15*
X152998408Y-121203100D03*
D16*
X142838408Y-121203100D03*
D15*
X156300408Y-102661101D03*
D16*
X166460408Y-102661101D03*
D17*
X166460405Y-121203101D03*
D18*
X156300405Y-121203101D03*
D19*
X173826408Y-105963099D03*
D20*
X173826408Y-100963099D03*
D15*
X152998410Y-114599100D03*
D16*
X142838410Y-114599100D03*
D21*
X151220408Y-110535101D03*
D15*
X151220408Y-108035101D03*
X152998407Y-117901100D03*
D16*
X142838407Y-117901100D03*
D22*
X190082407Y-123743101D03*
D23*
X192622407Y-123743101D03*
X195162407Y-123743101D03*
X197702407Y-123743101D03*
X200242407Y-123743101D03*
X202782407Y-123743101D03*
X205322407Y-123743101D03*
X207862407Y-123743101D03*
X210402407Y-123743101D03*
X212942407Y-123743101D03*
X215482407Y-123743101D03*
X218022407Y-123743101D03*
X220562407Y-123743101D03*
X223102407Y-123743101D03*
X225642407Y-123743101D03*
X228182407Y-123743101D03*
X230722407Y-123743101D03*
X233262407Y-123743101D03*
X235802407Y-123743101D03*
X235799687Y-98346781D03*
X233259687Y-98346781D03*
X230722407Y-98343101D03*
X228182407Y-98343101D03*
X225642407Y-98343101D03*
X223102407Y-98343101D03*
X220562407Y-98343101D03*
X218022407Y-98343101D03*
X215482407Y-98343101D03*
X212942407Y-98343101D03*
X210402407Y-98343101D03*
X207862407Y-98343101D03*
X205322407Y-98343101D03*
X202782407Y-98343101D03*
X200242407Y-98343101D03*
X197702407Y-98343101D03*
X195162407Y-98343101D03*
X192622408Y-98343101D03*
X190082407Y-98343101D03*
D24*
X133948406Y-112059103D03*
D25*
X133948406Y-118059103D03*
D26*
X138648406Y-115059103D03*
D15*
X209082404Y-113543101D03*
X209082404Y-108543101D03*
D27*
X115316000Y-103545705D03*
D28*
X116586000Y-101346000D03*
X117515705Y-104815705D03*
X118785705Y-102616000D03*
X119715409Y-106085705D03*
X120985409Y-103886000D03*
D15*
X156300409Y-105963100D03*
D16*
X166460409Y-105963100D03*
D21*
X163920407Y-117139101D03*
D16*
X163920407Y-114599101D03*
X163920407Y-112059101D03*
X163920407Y-109519101D03*
X156300407Y-109519100D03*
X156300407Y-112059101D03*
X156300407Y-114599100D03*
X156300407Y-117139101D03*
D15*
X167476407Y-112059102D03*
X167476407Y-109559102D03*
D29*
X172048408Y-116123101D03*
X179048408Y-116123101D03*
D30*
X125566408Y-124163099D03*
X125566408Y-108923099D03*
X205322408Y-107243101D03*
X202782408Y-107243101D03*
X200242408Y-107243101D03*
X197702408Y-107243101D03*
X195162408Y-107243101D03*
X192622408Y-107243101D03*
X190082408Y-107243101D03*
X190082408Y-114863101D03*
X192622407Y-114863101D03*
X195162408Y-114863101D03*
X197702407Y-114863101D03*
X200242408Y-114863101D03*
X202782407Y-114863101D03*
X205322408Y-114863101D03*
X152998408Y-121203100D03*
X142838408Y-121203100D03*
X156300408Y-102661101D03*
X166460408Y-102661101D03*
X166460405Y-121203101D03*
X156300405Y-121203101D03*
X173826408Y-105963099D03*
X173826408Y-100963099D03*
X152998410Y-114599100D03*
X142838410Y-114599100D03*
X151220408Y-110535101D03*
X151220408Y-108035101D03*
X152998407Y-117901100D03*
X142838407Y-117901100D03*
X190082407Y-123743101D03*
X192622407Y-123743101D03*
X195162407Y-123743101D03*
X197702407Y-123743101D03*
X200242407Y-123743101D03*
X202782407Y-123743101D03*
X205322407Y-123743101D03*
X207862407Y-123743101D03*
X210402407Y-123743101D03*
X212942407Y-123743101D03*
X215482407Y-123743101D03*
X218022407Y-123743101D03*
X220562407Y-123743101D03*
X223102407Y-123743101D03*
X225642407Y-123743101D03*
X228182407Y-123743101D03*
X230722407Y-123743101D03*
X233262407Y-123743101D03*
X235802407Y-123743101D03*
X235799687Y-98346781D03*
X233259687Y-98346781D03*
X230722407Y-98343101D03*
X228182407Y-98343101D03*
X225642407Y-98343101D03*
X223102407Y-98343101D03*
X220562407Y-98343101D03*
X218022407Y-98343101D03*
X215482407Y-98343101D03*
X212942407Y-98343101D03*
X210402407Y-98343101D03*
X207862407Y-98343101D03*
X205322407Y-98343101D03*
X202782407Y-98343101D03*
X200242407Y-98343101D03*
X197702407Y-98343101D03*
X195162407Y-98343101D03*
X192622408Y-98343101D03*
X190082407Y-98343101D03*
D31*
X133948406Y-112059103D03*
X133948406Y-118059103D03*
D32*
X138648406Y-115059103D03*
D30*
X209082404Y-113543101D03*
X209082404Y-108543101D03*
X115316000Y-103545705D03*
X116586000Y-101346000D03*
X117515705Y-104815705D03*
X118785705Y-102616000D03*
X119715409Y-106085705D03*
X120985409Y-103886000D03*
X156300409Y-105963100D03*
X166460409Y-105963100D03*
X163920407Y-117139101D03*
X163920407Y-114599101D03*
X163920407Y-112059101D03*
X163920407Y-109519101D03*
X156300407Y-109519100D03*
X156300407Y-112059101D03*
X156300407Y-114599100D03*
X156300407Y-117139101D03*
X167476407Y-112059102D03*
X167476407Y-109559102D03*
X172048408Y-116123101D03*
X179048408Y-116123101D03*
X241448403Y-98559103D03*
X110246670Y-98559067D03*
X241448403Y-123559103D03*
M02*
